<svg width="614" height="90" viewBox="0 0 614 90" fill="none" xmlns="http://www.w3.org/2000/svg">
<path d="M144.59 71.7367L124.204 13.4034C123.48 11.3289 121.9 10 120.162 10H105.93L106.287 14.2219C106.36 15.0823 105.819 15.8333 105.127 15.8333H100.874C100.181 15.8333 99.6404 15.0823 99.7133 14.2219L100.071 10H85.8388C84.099 10 82.5197 11.3289 81.7949 13.4034L61.409 71.7367C60.06 75.5995 62.2125 80 65.4544 80H94.16L95.6635 62.1938C95.789 60.7099 96.7894 59.5833 97.9837 59.5833H108.017C109.211 59.5833 110.212 60.7099 110.337 62.1938L111.841 80H140.546C143.788 80 145.941 75.5995 144.59 71.7367ZM98.9754 22.9719C99.0057 22.6135 99.141 22.2818 99.3554 22.0408C99.5697 21.7997 99.8479 21.6665 100.136 21.6667H105.866C106.462 21.6667 106.964 22.2299 107.027 22.9719L107.698 30.9161C107.807 32.2086 106.996 33.3333 105.958 33.3333H100.046C99.006 33.3333 98.1966 32.2086 98.306 30.9161L98.9754 22.9719ZM107.031 53.75H98.9681C97.5827 53.75 96.5021 52.2497 96.6479 50.5271L97.3873 41.7771C97.5127 40.2932 98.5131 39.1667 99.7075 39.1667H106.292C107.486 39.1667 108.487 40.2932 108.612 41.7771L109.351 50.5271C109.497 52.2497 108.417 53.75 107.031 53.75Z" fill="#7CC562"/>
<path d="M31.6 80.7C26.4667 80.7 21.8667 79.8667 17.8 78.2C13.7333 76.5333 10.4667 74.0667 8 70.8C5.6 67.5333 4.33333 63.6 4.2 59H22.4C22.6667 61.6 23.5667 63.6 25.1 65C26.6333 66.3333 28.6333 67 31.1 67C33.6333 67 35.6333 66.4333 37.1 65.3C38.5667 64.1 39.3 62.4667 39.3 60.4C39.3 58.6667 38.7 57.2333 37.5 56.1C36.3667 54.9667 34.9333 54.0333 33.2 53.3C31.5333 52.5667 29.1333 51.7333 26 50.8C21.4667 49.4 17.7667 48 14.9 46.6C12.0333 45.2 9.56667 43.1333 7.5 40.4C5.43333 37.6667 4.4 34.1 4.4 29.7C4.4 23.1667 6.76667 18.0667 11.5 14.4C16.2333 10.6667 22.4 8.8 30 8.8C37.7333 8.8 43.9667 10.6667 48.7 14.4C53.4333 18.0667 55.9667 23.2 56.3 29.8H37.8C37.6667 27.5333 36.8333 25.7667 35.3 24.5C33.7667 23.1667 31.8 22.5 29.4 22.5C27.3333 22.5 25.6667 23.0667 24.4 24.2C23.1333 25.2667 22.5 26.8333 22.5 28.9C22.5 31.1667 23.5667 32.9333 25.7 34.2C27.8333 35.4667 31.1667 36.8333 35.7 38.3C40.2333 39.8333 43.9 41.3 46.7 42.7C49.5667 44.1 52.0333 46.1333 54.1 48.8C56.1667 51.4667 57.2 54.9 57.2 59.1C57.2 63.1 56.1667 66.7333 54.1 70C52.1 73.2667 49.1667 75.8667 45.3 77.8C41.4333 79.7333 36.8667 80.7 31.6 80.7ZM198.189 9.8V23.5H169.589V38.3H190.989V51.6H169.589V80H152.489V9.8H198.189ZM224.277 23.5V37.7H247.177V50.9H224.277V66.3H250.177V80H207.177V9.8H250.177V23.5H224.277ZM306.07 80.7C301.47 80.7 297.336 79.9 293.67 78.3C290.07 76.6333 287.236 74.3667 285.17 71.5C283.103 68.5667 282.036 65.2 281.97 61.4H291.67C292.003 64.6667 293.336 67.4333 295.67 69.7C298.07 71.9 301.536 73 306.07 73C310.403 73 313.803 71.9333 316.27 69.8C318.803 67.6 320.07 64.8 320.07 61.4C320.07 58.7333 319.336 56.5667 317.87 54.9C316.403 53.2333 314.57 51.9667 312.37 51.1C310.17 50.2333 307.203 49.3 303.47 48.3C298.87 47.1 295.17 45.9 292.37 44.7C289.636 43.5 287.27 41.6333 285.27 39.1C283.336 36.5 282.37 33.0333 282.37 28.7C282.37 24.9 283.336 21.5333 285.27 18.6C287.203 15.6667 289.903 13.4 293.37 11.8C296.903 10.2 300.936 9.4 305.47 9.4C312.003 9.4 317.336 11.0333 321.47 14.3C325.67 17.5667 328.036 21.9 328.57 27.3H318.57C318.236 24.6333 316.836 22.3 314.37 20.3C311.903 18.2333 308.636 17.2 304.57 17.2C300.77 17.2 297.67 18.2 295.27 20.2C292.87 22.1333 291.67 24.8667 291.67 28.4C291.67 30.9333 292.37 33 293.77 34.6C295.236 36.2 297.003 37.4333 299.07 38.3C301.203 39.1 304.17 40.0333 307.97 41.1C312.57 42.3667 316.27 43.6333 319.07 44.9C321.87 46.1 324.27 48 326.27 50.6C328.27 53.1333 329.27 56.6 329.27 61C329.27 64.4 328.37 67.6 326.57 70.6C324.77 73.6 322.103 76.0333 318.57 77.9C315.036 79.7667 310.87 80.7 306.07 80.7ZM385.561 10.3V17.7H366.561V80H357.461V17.7H338.361V10.3H385.561ZM433.463 80L416.863 51.5H405.863V80H396.763V10.3H419.263C424.529 10.3 428.963 11.2 432.563 13C436.229 14.8 438.963 17.2333 440.763 20.3C442.563 23.3667 443.463 26.8667 443.463 30.8C443.463 35.6 442.063 39.8333 439.263 43.5C436.529 47.1667 432.396 49.6 426.863 50.8L444.363 80H433.463ZM405.863 44.2H419.263C424.196 44.2 427.896 43 430.363 40.6C432.829 38.1333 434.063 34.8667 434.063 30.8C434.063 26.6667 432.829 23.4667 430.363 21.2C427.963 18.9333 424.263 17.8 419.263 17.8H405.863V44.2ZM466.702 17.7V41H492.102V48.5H466.702V72.5H495.102V80H457.602V10.2H495.102V17.7H466.702ZM517.972 17.7V41H543.372V48.5H517.972V72.5H546.372V80H508.872V10.2H546.372V17.7H517.972ZM603.041 10.3V17.7H584.041V80H574.941V17.7H555.841V10.3H603.041Z" fill="#E8E9EB"/>
</svg>
